<svg version="1" xmlns="http://www.w3.org/2000/svg" width="1333.333" height="1333.333" viewBox="0 0 1000.000000 1000.000000"><path d="M760 5.7C750 58 736.1 103 716.3 148.1l-5.6 12.7-6.1.7c-34.7 3.8-116.8 26.8-173.5 48.6-4.1 1.6-7.7 2.7-7.9 2.4-.6-.6 8-12.6 17.4-24 8.1-9.9 24-26 34.2-34.4 2.8-2.4 5-4.6 4.8-4.8-.8-.8-26.1 4.6-38.6 8.3-6.9 2-13.2 3.6-14 3.7-.8 0-1.7.3-2 .6-.3.4-5.4 2.6-11.5 5-9.8 3.9-32.6 14.8-41.3 19.7-1.9 1-9.3 5.8-16.5 10.5-58.8 38.6-98.9 93.2-118.3 160.6-2.4 8.5-4.4 16.3-4.4 17.3s-.4 2.1-.8 2.4c-.5.3-5.9-5.2-12.1-12.2-64.1-72.1-135.8-137.1-191.6-173.8-44.6-29.3-80.3-43.4-113.7-45.1l-12.7-.6-.8 2.9c-1.4 4.9-.9 74.5.5 87.9 6.6 59.8 22.1 116.4 43.8 159.6 2.4 4.9 4.1 9.5 3.8 10.4-.4.9-.1 1.5.8 1.5 2.1 0 6 8.4 4.5 9.9-.8.8-.6 1.1.9 1.1 1.3 0 2.7 1.6 4.4 4.7 4.2 8 21.2 33.2 29.5 43.8 26 33.3 55.4 60.8 90.7 84.8l9.8 6.7-5.3 2.2c-10.6 4.5-32.5 15.7-43.2 22.1-28.8 17-46.9 33.7-55.6 50.9-1.6 3.2-2.7 5.8-2.5 5.8.2 0 3.2-.9 6.7-2 19.3-5.9 49.4-12.2 75.4-15.9 27.9-4 37.7-4.6 69.5-4.6 26.3 0 33.1.3 41.2 1.8 5.3 1 10.2 2.5 10.8 3.2.6.8 1.7 1.2 2.5.9.7-.3 2.7.1 4.3 1l3 1.5-1.4 7.3c-8.8 45.7-15 99-18.5 159.8-.5 10.2-1.2 53.6-1.5 96.5-.2 42.9-.6 85.3-.7 94.2l-.3 16.3h8.6l.1-27.3c.1-57.8 1.9-173.9 2.9-189.2 3.4-51.7 9.4-104 15.8-138.5 1.7-9.4 1.7-9.4 4.7-9.5 2.6 0 3 .4 3.3 2.8.3 2.2.8 2.7 2.5 2.5 1.5-.2 2.3.3 2.5 1.7.6 3.1 2.3 4.7 3.7 3.5 1.5-1.3 2.5-.3 2.5 2.7 0 1.7.5 2.3 1.8 2.2 2.7-.5 6.6 2.1 5.3 3.4-1.6 1.6-1.3 3 .5 2.3 2.1-.8 4.4 1.1 4.4 3.5 0 1.4 1.1 1.9 5.3 2.4 4.9.6 5.3.9 5 3-.4 1.8.1 2.3 2.6 2.8 2.2.5 3.1 1.2 3.1 2.7 0 2 .9 2.4 4.2 2.1 1.1-.1 1.8.7 2 2.6.2 2.2.9 2.9 3.3 3.3 2.3.4 3 1.1 2.9 2.8-.1 1.9.3 2.2 2.2 1.8 1.3-.4 2.6-.1 2.9.5.4.6 1.3.8 2.1.5.7-.3 2.8.1 4.5.8 2.4 1 2.7 1.5 1.5 1.9-1.9.8-2.1 2.3-.3 2.5 5.2.7 7.8 1.6 7.3 2.7-.6 1.6 2 3 6.2 3.4.6 0 1.2 1 1.2 2.1 0 1.5.7 2 2.7 2 1.4 0 4.2 1.2 6.2 2.7 2 1.6 4.8 3.5 6.2 4.3 1.4.8 8.7 5.2 16.1 9.7 71.3 43 138.3 56.2 220.1 43.2 4.2-.7 7.7-1.5 7.7-1.9 0-.3-6.4-3.2-14.2-6.5-57.1-23.6-113.5-53.3-143.2-75.4l-8.8-6.6 7.3-.7c4.1-.3 14.4-1.1 22.9-1.7 18.4-1.4 46.6-5.1 65.7-8.7 7.6-1.4 16.7-3 20.3-3.6 3.6-.6 7.3-1.4 8.3-1.9 1.1-.6 1.7-.6 1.7.1 0 .5.7 1 1.5 1s1.5-.7 1.5-1.5c0-1.4 3.3-2.1 8.3-1.7 1 .1 2.5-.5 3.3-1.3 1.4-1.3 5.5-2 9.2-1.6.6.1 1.2-.3 1.2-.8 0-1.3 7.3-3.3 9.4-2.5.9.3 1.6.1 1.6-.4 0-.6 1-1.3 2.3-1.7 4.8-1.3 19.4-5.9 22.7-7.1 1.9-.7 10.3-3.8 18.7-6.8 58.6-21.1 113.8-52.9 157.8-90.8 14.6-12.6 40.9-39.7 51.6-53 51.8-64.9 83-138.7 96.3-228.4 5.3-35.7 6.1-48.4 6.1-98.9 0-53.3-1.2-72.1-8.1-123-3.2-24-3.2-24.2-6.7-18.3-1.4 2.5-6.5 9.8-11.3 16.4-48.8 66.9-116 110.1-190.5 122.4-11.6 1.9-60.4 4.8-61.6 3.7-.2-.3.7-2.7 2-5.4 4.7-9.3 16.5-40 23.1-60.1 7.4-22.6 15-51.3 19.4-73.2 4.6-22.4 4.6-20-.4-20h-4.3L760 5.7z"/><path d="M141.5 628.9c-.3.5-.1 1.2.5 1.6.5.3 1-.1 1-.9 0-1.8-.6-2.1-1.5-.7zM147 629.6c0 .8.5 1.2 1 .9.6-.3 1-1 1-1.6 0-.5-.4-.9-1-.9-.5 0-1 .7-1 1.6zM153.1 629.6c0 1.1.3 1.4.6.6.3-.7.2-1.6-.1-1.9-.3-.4-.6.2-.5 1.3zM124 635c0 .5.7 1 1.5 1s1.5-.5 1.5-1c0-.6-.7-1-1.5-1s-1.5.4-1.5 1zM129.3 635.2c.2.7 1 1.3 1.7 1.3s1.5-.6 1.8-1.3c.2-.7-.5-1.2-1.8-1.2s-2 .5-1.7 1.2zM135.2 635.2c.6 1.8 2.8 2.1 2.8.4 0-.9-.7-1.6-1.6-1.6-.9 0-1.4.5-1.2 1.2zM141.2 634.9c.4 1.3 1.8 1.6 1.9.4 0-.4-.5-.9-1.1-1.2-.7-.2-1.1.2-.8.8zM147 635c0 .5.5 1 1 1 .6 0 1-.5 1-1 0-.6-.4-1-1-1-.5 0-1 .4-1 1zM130 640.5c0 .8.5 1.5 1 1.5.6 0 1-.7 1-1.5s-.4-1.5-1-1.5c-.5 0-1 .7-1 1.5zM136 640.6c0 .8.5 1.2 1 .9.6-.3 1-1 1-1.6 0-.5-.4-.9-1-.9-.5 0-1 .7-1 1.6zM124 641c0 .5.7 1 1.5 1s1.5-.5 1.5-1c0-.6-.7-1-1.5-1s-1.5.4-1.5 1zM310.5 644c-.3.5.1 1 1 1s1.3-.5 1-1c-.3-.6-.8-1-1-1-.2 0-.7.4-1 1zM637 647c0 .5.5 1 1 1 .6 0 1-.5 1-1 0-.6-.4-1-1-1-.5 0-1 .4-1 1zM338.5 666c-.3.5.1 1 .9 1 .9 0 1.6-.5 1.6-1 0-.6-.4-1-.9-1-.6 0-1.3.4-1.6 1zM344 672c0 .5.4 1 .9 1 .6 0 1.3-.5 1.6-1 .3-.6-.1-1-.9-1-.9 0-1.6.4-1.6 1z"/></svg>