<svg xmlns="http://www.w3.org/2000/svg" data-name="Layer 1" viewBox="0 0 100 125" x="0px" y="0px"><title>Artboard 1</title><path d="M66.45,17.22,72.94,13a1.16,1.16,0,0,1,1.27,0A44.24,44.24,0,0,1,51.1,94.24v3.18A1.34,1.34,0,0,1,49,98.54L37.55,91.06a1.34,1.34,0,0,1,0-2.24L49,81.34a1.34,1.34,0,0,1,2.07,1.12v3.13A35.6,35.6,0,0,0,66.52,18.48.73.73,0,0,1,66.45,17.22ZM25.79,87a1.16,1.16,0,0,0,1.27,0l6.49-4.23a.73.73,0,0,0-.07-1.26A35.6,35.6,0,0,1,48.9,14.41v3.13A1.34,1.34,0,0,0,51,18.66l11.49-7.48a1.34,1.34,0,0,0,0-2.24L51,1.46A1.34,1.34,0,0,0,48.9,2.58V5.76A44.24,44.24,0,0,0,25.79,87ZM65.21,50.73a9.42,9.42,0,0,0-3.43,2.46,12.72,12.72,0,0,0-6.92-7,8.65,8.65,0,1,0-9.72,0,12.72,12.72,0,0,0-6.92,7,9.43,9.43,0,0,0-3.43-2.46,6.42,6.42,0,1,0-7.21,0,9.41,9.41,0,0,0-5.8,8.69v3.11a1.32,1.32,0,0,0,1.32,1.32H76.9a1.32,1.32,0,0,0,1.32-1.32V59.42a9.41,9.41,0,0,0-5.8-8.69,6.42,6.42,0,1,0-7.21,0Z"/><text x="0" y="115" fill="#000000" font-size="5px" font-weight="bold" font-family="'Helvetica Neue', Helvetica, Arial-Unicode, Arial, Sans-serif">Created by Gregor Cresnar</text><text x="0" y="120" fill="#000000" font-size="5px" font-weight="bold" font-family="'Helvetica Neue', Helvetica, Arial-Unicode, Arial, Sans-serif">from the Noun Project</text></svg>