<svg width="400" height="400" xmlns="http://www.w3.org/2000/svg">
 <!-- Created with Method Draw - http://github.com/duopixel/Method-Draw/ -->

 <g>
  <title>background</title>
  <rect fill="none" id="canvas_background" height="402" width="402" y="-1" x="-1"/>
  <g display="none" overflow="visible" y="0" x="0" height="100%" width="100%" id="canvasGrid">
   <rect fill="url(#gridpattern)" stroke-width="0" y="1" x="1" height="400" width="580"/>
  </g>
 </g>
 <g>
  <title>Layer 1</title>
  <g stroke="null" transform="matrix(7.788498498674844,0,0,7.788498498674844,-2.6868523229412062,-3.4813228927760065) " id="svg_4">
   <g stroke="null" id="svg_5">
    <path stroke="null" id="svg_6" d="m46.0096,1.24l-40,0c-2.757,0 -5,2.243 -5,5l0,40c0,2.757 2.243,5 5,5l40,0c2.757,0 5,-2.243 5,-5l0,-40c0,-2.757 -2.243,-5 -5,-5zm3,45c0,1.654 -1.346,3 -3,3l-40,0c-1.654,0 -3,-1.346 -3,-3l0,-40c0,-1.654 1.346,-3 3,-3l40,0c1.654,0 3,1.346 3,3l0,40z"/>
    <path stroke="null" id="svg_7" d="m43.8886,17.533c-0.375,-0.375 -1.039,-0.375 -1.414,0l-16.971,16.971c-0.11,0.109 -0.192,0.243 -0.242,0.391l-1.414,4.242c-0.12,0.359 -0.026,0.756 0.242,1.023c0.19,0.19 0.446,0.293 0.707,0.293c0.106,0 0.212,-0.017 0.316,-0.052l4.242,-1.414c0.147,-0.049 0.281,-0.132 0.391,-0.241l16.971,-16.971c0.188,-0.187 0.293,-0.442 0.293,-0.707s-0.105,-0.52 -0.293,-0.707l-2.828,-2.828zm-15.39,19.632l-2.121,0.707l0.707,-2.121l16.097,-16.097l1.414,1.414l-16.097,16.097z"/>
    <path stroke="null" id="svg_8" d="m10.0096,11.24l32,0c0.553,0 1,-0.448 1,-1s-0.447,-1 -1,-1l-32,0c-0.552,0 -1,0.448 -1,1s0.448,1 1,1z"/>
    <path stroke="null" id="svg_9" d="m10.0096,17.24l28,0c0.553,0 1,-0.448 1,-1s-0.447,-1 -1,-1l-28,0c-0.552,0 -1,0.448 -1,1s0.448,1 1,1z"/>
    <path stroke="null" id="svg_10" d="m10.0096,23.24l22,0c0.553,0 1,-0.448 1,-1s-0.447,-1 -1,-1l-22,0c-0.552,0 -1,0.448 -1,1s0.448,1 1,1z"/>
    <path stroke="null" id="svg_11" d="m10.0096,29.24l16,0c0.552,0 1,-0.447 1,-1s-0.448,-1 -1,-1l-16,0c-0.552,0 -1,0.447 -1,1s0.448,1 1,1z"/>
    <path stroke="null" id="svg_12" d="m22.0096,33.24l-12,0c-0.552,0 -1,0.447 -1,1s0.448,1 1,1l12,0c0.552,0 1,-0.447 1,-1s-0.448,-1 -1,-1z"/>
    <path stroke="null" id="svg_13" d="m20.0096,39.24l-10,0c-0.552,0 -1,0.447 -1,1s0.448,1 1,1l10,0c0.552,0 1,-0.447 1,-1s-0.448,-1 -1,-1z"/>
   </g>
  </g>
 </g>
</svg>